<svg width="32" height="32" viewBox="0 0 32 32" fill="none" xmlns="http://www.w3.org/2000/svg">
<path d="M32 16C32 7.16411 24.8359 0 16 0C7.16411 0 0 7.16411 0 16C0 23.9854 5.85009 30.605 13.5002 31.8065V20.6261H9.43665V16H13.5002V12.4742C13.5002 8.46463 15.8897 6.24835 19.5438 6.24835C21.2943 6.24835 23.1259 6.5611 23.1259 6.5611V10.4987H21.1076C19.1208 10.4987 18.4998 11.7317 18.4998 12.9985V16H22.9369L22.2281 20.6261H18.4998V31.8065C26.1499 30.6072 32 23.9876 32 16Z" fill="#1877F2"/>
<path d="M22.2282 20.6261L22.937 16.0001H18.4999V12.9985C18.4999 11.734 19.1187 10.4987 21.1077 10.4987H23.126V6.56117C23.126 6.56117 21.2945 6.24841 19.5439 6.24841C15.8899 6.24841 13.5003 8.46245 13.5003 12.4743V16.0001H9.43677V20.6261H13.5003V31.8066C14.3148 31.9348 15.1496 32.0001 16.0001 32.0001C16.8506 32.0001 17.6854 31.9326 18.4999 31.8066V20.6261H22.2282Z" fill="white"/>
</svg>
