<svg width="32" height="33" viewBox="0 0 32 33" fill="none" xmlns="http://www.w3.org/2000/svg">
<path fill-rule="evenodd" clip-rule="evenodd" d="M15.9985 0.366455C7.16437 0.366455 0 7.71116 0 16.7719C0 24.0189 4.58406 30.1681 10.942 32.3384C11.7425 32.4884 12.0343 31.9819 12.0343 31.5468C12.0343 31.1571 12.0205 30.1258 12.0126 28.7572C7.56218 29.7482 6.62317 26.5577 6.62317 26.5577C5.89534 24.6624 4.84632 24.1578 4.84632 24.1578C3.39361 23.1407 4.95633 23.1608 4.95633 23.1608C6.56227 23.2767 7.40698 24.8517 7.40698 24.8517C8.83416 27.3584 11.1522 26.6343 12.0637 26.2143C12.2091 25.1549 12.6226 24.4318 13.0793 24.0219C9.52663 23.607 5.79122 22.2001 5.79122 15.9139C5.79122 14.1223 6.41494 12.659 7.43842 11.5119C7.27341 11.097 6.72434 9.42922 7.59557 7.17032C7.59557 7.17032 8.93827 6.72922 11.995 8.85114C13.2709 8.48759 14.6401 8.30631 16.0005 8.29926C17.3599 8.30631 18.7281 8.48759 20.006 8.85114C23.0607 6.72922 24.4015 7.17032 24.4015 7.17032C25.2747 9.42922 24.7256 11.097 24.5616 11.5119C25.587 12.659 26.2058 14.1223 26.2058 15.9139C26.2058 22.2162 22.4645 23.6029 18.901 24.0088C19.4746 24.5154 19.9864 25.5164 19.9864 27.0472C19.9864 29.2396 19.9667 31.0091 19.9667 31.5468C19.9667 31.9859 20.2555 32.4965 21.0668 32.3364C27.4199 30.1621 32 24.0179 32 16.7719C32 7.71116 24.8356 0.366455 15.9985 0.366455" fill="#1B1817"/>
</svg>
