<svg width="32" height="32" viewBox="0 0 32 32" fill="none" xmlns="http://www.w3.org/2000/svg">
<path fill-rule="evenodd" clip-rule="evenodd" d="M31.36 16.3635C31.36 15.229 31.2582 14.1381 31.0691 13.0908H16V19.2799H24.6109C24.24 21.2799 23.1127 22.9745 21.4182 24.109V28.1235H26.5891C29.6145 25.3381 31.36 21.2363 31.36 16.3635Z" fill="#4285F4"/>
<path fill-rule="evenodd" clip-rule="evenodd" d="M16.0001 32C20.3201 32 23.9419 30.5673 26.5892 28.1237L21.4183 24.1091C19.9855 25.0691 18.1528 25.6364 16.0001 25.6364C11.8328 25.6364 8.30554 22.8219 7.04736 19.04H1.7019V23.1855C4.33463 28.4146 9.74554 32 16.0001 32Z" fill="#34A853"/>
<path fill-rule="evenodd" clip-rule="evenodd" d="M7.04727 19.0402C6.72727 18.0802 6.54545 17.0547 6.54545 16.0002C6.54545 14.9456 6.72727 13.9202 7.04727 12.9602V8.8147H1.70182C0.618182 10.9747 0 13.4183 0 16.0002C0 18.582 0.618182 21.0256 1.70182 23.1856L7.04727 19.0402Z" fill="#FBBC05"/>
<path fill-rule="evenodd" clip-rule="evenodd" d="M16.0001 6.36364C18.3492 6.36364 20.4583 7.17091 22.1165 8.75636L26.7055 4.16727C23.9346 1.58545 20.3128 0 16.0001 0C9.74554 0 4.33463 3.58545 1.7019 8.81455L7.04736 12.96C8.30554 9.17818 11.8328 6.36364 16.0001 6.36364Z" fill="#EA4335"/>
</svg>
