<svg width="120" height="25" viewBox="0 0 120 25" fill="none" xmlns="http://www.w3.org/2000/svg">
<path d="M6.60645 24H2.60742V12.2959H0.65918V8.31152H2.60742V7.56445C2.60742 6.59766 2.78809 5.68945 3.14941 4.83984C3.52051 3.99023 4.02344 3.25293 4.6582 2.62793C5.30273 1.99316 6.0498 1.49512 6.89941 1.13379C7.74902 0.762695 8.65723 0.577148 9.62402 0.577148H12.627V4.56152H9.62402C9.19434 4.56152 8.79395 4.63965 8.42285 4.7959C8.06152 4.94238 7.74414 5.15234 7.4707 5.42578C7.20703 5.68945 6.99707 6.00684 6.84082 6.37793C6.68457 6.73926 6.60645 7.13477 6.60645 7.56445V8.31152H11.5137V12.2959H6.60645V24ZM17.4463 24H13.418V2.07129H17.4463V24ZM26.748 20.1621C26.9043 20.2109 27.0605 20.2451 27.2168 20.2646C27.373 20.2744 27.5293 20.2793 27.6855 20.2793C28.0762 20.2793 28.4521 20.2256 28.8135 20.1182C29.1748 20.0107 29.5117 19.8594 29.8242 19.6641C30.1465 19.459 30.4297 19.2148 30.6738 18.9316C30.9277 18.6387 31.1328 18.3164 31.2891 17.9648L34.2188 20.9092C33.8477 21.4365 33.418 21.9102 32.9297 22.3301C32.4512 22.75 31.9287 23.1064 31.3623 23.3994C30.8057 23.6924 30.2148 23.9121 29.5898 24.0586C28.9746 24.2148 28.3398 24.293 27.6855 24.293C26.582 24.293 25.542 24.0879 24.5654 23.6777C23.5986 23.2676 22.749 22.6963 22.0166 21.9639C21.2939 21.2314 20.7227 20.3623 20.3027 19.3564C19.8828 18.3408 19.6729 17.2275 19.6729 16.0166C19.6729 14.7764 19.8828 13.6436 20.3027 12.6182C20.7227 11.5928 21.2939 10.7188 22.0166 9.99609C22.749 9.27344 23.5986 8.71191 24.5654 8.31152C25.542 7.91113 26.582 7.71094 27.6855 7.71094C28.3398 7.71094 28.9795 7.78906 29.6045 7.94531C30.2295 8.10156 30.8203 8.32617 31.377 8.61914C31.9434 8.91211 32.4707 9.27344 32.959 9.70312C33.4473 10.123 33.877 10.5967 34.248 11.124L26.748 20.1621ZM28.7988 11.915C28.6133 11.8467 28.4277 11.8027 28.2422 11.7832C28.0664 11.7637 27.8809 11.7539 27.6855 11.7539C27.1387 11.7539 26.6211 11.8564 26.1328 12.0615C25.6543 12.2568 25.2344 12.54 24.873 12.9111C24.5215 13.2822 24.2432 13.7314 24.0381 14.2588C23.833 14.7764 23.7305 15.3623 23.7305 16.0166C23.7305 16.1631 23.7354 16.3291 23.7451 16.5146C23.7646 16.7002 23.7891 16.8906 23.8184 17.0859C23.8574 17.2715 23.9014 17.4521 23.9502 17.6279C23.999 17.8037 24.0625 17.96 24.1406 18.0967L28.7988 11.915ZM50.5664 24H45.6738L42.5537 19.1953L39.4043 24H34.5117L40.2393 15.958L34.5117 8.22363H39.4043L42.5537 12.7207L45.6738 8.22363H50.5664L44.8242 15.958L50.5664 24ZM71.9531 24H67.9688V14.0391C67.9688 13.7656 67.915 13.5068 67.8076 13.2627C67.71 13.0186 67.5684 12.8037 67.3828 12.6182C67.1973 12.4326 66.9824 12.291 66.7383 12.1934C66.4941 12.0859 66.2354 12.0322 65.9619 12.0322C65.6885 12.0322 65.4297 12.0859 65.1855 12.1934C64.9512 12.291 64.7412 12.4326 64.5557 12.6182C64.3799 12.8037 64.2383 13.0186 64.1309 13.2627C64.0332 13.5068 63.9844 13.7656 63.9844 14.0391V24H59.9854V14.0391C59.9854 13.7656 59.9316 13.5068 59.8242 13.2627C59.7266 13.0186 59.585 12.8037 59.3994 12.6182C59.2139 12.4326 58.999 12.291 58.7549 12.1934C58.5107 12.0859 58.252 12.0322 57.9785 12.0322C57.7051 12.0322 57.4463 12.0859 57.2021 12.1934C56.9678 12.291 56.7578 12.4326 56.5723 12.6182C56.3965 12.8037 56.2549 13.0186 56.1475 13.2627C56.0498 13.5068 56.001 13.7656 56.001 14.0391V24H52.002V8.31152H52.9688L54.0527 9.5127C54.6094 9.04395 55.2197 8.68262 55.8838 8.42871C56.5576 8.16504 57.2559 8.0332 57.9785 8.0332C58.7109 8.0332 59.4238 8.16992 60.1172 8.44336C60.8203 8.7168 61.4355 9.19043 61.9629 9.86426C62.207 9.53223 62.4854 9.24902 62.7979 9.01465C63.1104 8.78027 63.4375 8.58984 63.7793 8.44336C64.1309 8.29688 64.4922 8.19434 64.8633 8.13574C65.2344 8.06738 65.6006 8.0332 65.9619 8.0332C66.792 8.0332 67.5684 8.18945 68.291 8.50195C69.0234 8.81445 69.6582 9.24414 70.1953 9.79102C70.7422 10.3281 71.1719 10.9629 71.4844 11.6953C71.7969 12.4277 71.9531 13.209 71.9531 14.0391V24ZM90.0439 16.0166C90.0439 17.1885 89.834 18.2822 89.4141 19.2979C88.9941 20.3037 88.4229 21.1777 87.7002 21.9199C86.9775 22.6523 86.1279 23.2334 85.1514 23.6631C84.1846 24.083 83.1445 24.293 82.0312 24.293C80.9277 24.293 79.8877 24.083 78.9111 23.6631C77.9443 23.2334 77.0947 22.6523 76.3623 21.9199C75.6396 21.1777 75.0684 20.3037 74.6484 19.2979C74.2285 18.2822 74.0186 17.1885 74.0186 16.0166C74.0186 14.8252 74.2285 13.7217 74.6484 12.7061C75.0684 11.6904 75.6396 10.8164 76.3623 10.084C77.0947 9.3418 77.9443 8.76074 78.9111 8.34082C79.8877 7.9209 80.9277 7.71094 82.0312 7.71094C83.1445 7.71094 84.1846 7.91113 85.1514 8.31152C86.1279 8.70215 86.9775 9.26367 87.7002 9.99609C88.4229 10.7188 88.9941 11.5928 89.4141 12.6182C89.834 13.6338 90.0439 14.7666 90.0439 16.0166ZM86.0156 16.0166C86.0156 15.3721 85.9082 14.791 85.6934 14.2734C85.4883 13.7461 85.2051 13.2969 84.8438 12.9258C84.4824 12.5449 84.0576 12.2568 83.5693 12.0615C83.0908 11.8564 82.5781 11.7539 82.0312 11.7539C81.4844 11.7539 80.9668 11.8564 80.4785 12.0615C80 12.2568 79.5801 12.5449 79.2188 12.9258C78.8672 13.2969 78.5889 13.7461 78.3838 14.2734C78.1787 14.791 78.0762 15.3721 78.0762 16.0166C78.0762 16.6221 78.1787 17.1836 78.3838 17.7012C78.5889 18.2188 78.8672 18.668 79.2188 19.0488C79.5801 19.4297 80 19.7324 80.4785 19.957C80.9668 20.1719 81.4844 20.2793 82.0312 20.2793C82.5781 20.2793 83.0908 20.1768 83.5693 19.9717C84.0576 19.7666 84.4824 19.4785 84.8438 19.1074C85.2051 18.7363 85.4883 18.2871 85.6934 17.7598C85.9082 17.2324 86.0156 16.6514 86.0156 16.0166ZM100.005 24C99.0381 24 98.1299 23.8193 97.2803 23.458C96.4307 23.0869 95.6836 22.584 95.0391 21.9492C94.4043 21.3047 93.9014 20.5576 93.5303 19.708C93.1689 18.8584 92.9883 17.9502 92.9883 16.9834V12.3252H91.04V8.34082H92.9883V2.07129H96.9727V8.34082H103.037V12.3252H96.9727V16.9834C96.9727 17.4033 97.0508 17.7988 97.207 18.1699C97.3633 18.5312 97.5781 18.8486 97.8516 19.1221C98.125 19.3955 98.4473 19.6152 98.8184 19.7812C99.1895 19.9375 99.585 20.0156 100.005 20.0156H103.037V24H100.005ZM111.533 20.1621C111.689 20.2109 111.846 20.2451 112.002 20.2646C112.158 20.2744 112.314 20.2793 112.471 20.2793C112.861 20.2793 113.237 20.2256 113.599 20.1182C113.96 20.0107 114.297 19.8594 114.609 19.6641C114.932 19.459 115.215 19.2148 115.459 18.9316C115.713 18.6387 115.918 18.3164 116.074 17.9648L119.004 20.9092C118.633 21.4365 118.203 21.9102 117.715 22.3301C117.236 22.75 116.714 23.1064 116.147 23.3994C115.591 23.6924 115 23.9121 114.375 24.0586C113.76 24.2148 113.125 24.293 112.471 24.293C111.367 24.293 110.327 24.0879 109.351 23.6777C108.384 23.2676 107.534 22.6963 106.802 21.9639C106.079 21.2314 105.508 20.3623 105.088 19.3564C104.668 18.3408 104.458 17.2275 104.458 16.0166C104.458 14.7764 104.668 13.6436 105.088 12.6182C105.508 11.5928 106.079 10.7188 106.802 9.99609C107.534 9.27344 108.384 8.71191 109.351 8.31152C110.327 7.91113 111.367 7.71094 112.471 7.71094C113.125 7.71094 113.765 7.78906 114.39 7.94531C115.015 8.10156 115.605 8.32617 116.162 8.61914C116.729 8.91211 117.256 9.27344 117.744 9.70312C118.232 10.123 118.662 10.5967 119.033 11.124L111.533 20.1621ZM113.584 11.915C113.398 11.8467 113.213 11.8027 113.027 11.7832C112.852 11.7637 112.666 11.7539 112.471 11.7539C111.924 11.7539 111.406 11.8564 110.918 12.0615C110.439 12.2568 110.02 12.54 109.658 12.9111C109.307 13.2822 109.028 13.7314 108.823 14.2588C108.618 14.7764 108.516 15.3623 108.516 16.0166C108.516 16.1631 108.521 16.3291 108.53 16.5146C108.55 16.7002 108.574 16.8906 108.604 17.0859C108.643 17.2715 108.687 17.4521 108.735 17.6279C108.784 17.8037 108.848 17.96 108.926 18.0967L113.584 11.915Z" fill="black"/>
</svg>
